<svg id="visual" viewBox="0 0 1920 1080" width="1920" height="1080" xmlns="http://www.w3.org/2000/svg" xmlns:xlink="http://www.w3.org/1999/xlink" version="1.1"><path d="M0 120L22.8 165C45.7 210 91.3 300 137 325.2C182.7 350.3 228.3 310.7 274 303.5C319.7 296.3 365.3 321.7 411.2 309C457 296.3 503 245.7 548.8 225.8C594.7 206 640.3 217 686 218.8C731.7 220.7 777.3 213.3 823 202.5C868.7 191.7 914.3 177.3 960 202.5C1005.7 227.7 1051.3 292.3 1097 312.2C1142.7 332 1188.3 307 1234 289C1279.7 271 1325.3 260 1371.2 256.3C1417 252.7 1463 256.3 1508.8 236.7C1554.7 217 1600.3 174 1646 188.5C1691.7 203 1737.3 275 1783 275C1828.7 275 1874.3 203 1897.2 167L1920 131L1920 0L1897.2 0C1874.3 0 1828.7 0 1783 0C1737.3 0 1691.7 0 1646 0C1600.3 0 1554.7 0 1508.8 0C1463 0 1417 0 1371.2 0C1325.3 0 1279.7 0 1234 0C1188.3 0 1142.7 0 1097 0C1051.3 0 1005.7 0 960 0C914.3 0 868.7 0 823 0C777.3 0 731.7 0 686 0C640.3 0 594.7 0 548.8 0C503 0 457 0 411.2 0C365.3 0 319.7 0 274 0C228.3 0 182.7 0 137 0C91.3 0 45.7 0 22.8 0L0 0Z" fill="#4e4e4e"></path><path d="M0 217L22.8 260.2C45.7 303.3 91.3 389.7 137 411.3C182.7 433 228.3 390 274 379.2C319.7 368.3 365.3 389.7 411.2 378.8C457 368 503 325 548.8 308.8C594.7 292.7 640.3 303.3 686 310.5C731.7 317.7 777.3 321.3 823 305.2C868.7 289 914.3 253 960 272.8C1005.7 292.7 1051.3 368.3 1097 390C1142.7 411.7 1188.3 379.3 1234 366.7C1279.7 354 1325.3 361 1371.2 352C1417 343 1463 318 1508.8 296.5C1554.7 275 1600.3 257 1646 280.3C1691.7 303.7 1737.3 368.3 1783 361C1828.7 353.7 1874.3 274.3 1897.2 234.7L1920 195L1920 129L1897.2 165C1874.3 201 1828.7 273 1783 273C1737.3 273 1691.7 201 1646 186.5C1600.3 172 1554.7 215 1508.8 234.7C1463 254.3 1417 250.7 1371.2 254.3C1325.3 258 1279.7 269 1234 287C1188.3 305 1142.7 330 1097 310.2C1051.3 290.3 1005.7 225.7 960 200.5C914.3 175.3 868.7 189.7 823 200.5C777.3 211.3 731.7 218.7 686 216.8C640.3 215 594.7 204 548.8 223.8C503 243.7 457 294.3 411.2 307C365.3 319.7 319.7 294.3 274 301.5C228.3 308.7 182.7 348.3 137 323.2C91.3 298 45.7 208 22.8 163L0 118Z" fill="#656565"></path><path d="M0 433L22.8 461.8C45.7 490.7 91.3 548.3 137 553.7C182.7 559 228.3 512 274 494C319.7 476 365.3 487 411.2 467.3C457 447.7 503 397.3 548.8 402.7C594.7 408 640.3 469 686 483.3C731.7 497.7 777.3 465.3 823 443.8C868.7 422.3 914.3 411.7 960 427.8C1005.7 444 1051.3 487 1097 517.5C1142.7 548 1188.3 566 1234 557C1279.7 548 1325.3 512 1371.2 503C1417 494 1463 512 1508.8 495.8C1554.7 479.7 1600.3 429.3 1646 429.3C1691.7 429.3 1737.3 479.7 1783 492.3C1828.7 505 1874.3 480 1897.2 467.5L1920 455L1920 193L1897.2 232.7C1874.3 272.3 1828.7 351.7 1783 359C1737.3 366.3 1691.7 301.7 1646 278.3C1600.3 255 1554.7 273 1508.8 294.5C1463 316 1417 341 1371.2 350C1325.3 359 1279.7 352 1234 364.7C1188.3 377.3 1142.7 409.7 1097 388C1051.3 366.3 1005.7 290.7 960 270.8C914.3 251 868.7 287 823 303.2C777.3 319.3 731.7 315.7 686 308.5C640.3 301.3 594.7 290.7 548.8 306.8C503 323 457 366 411.2 376.8C365.3 387.7 319.7 366.3 274 377.2C228.3 388 182.7 431 137 409.3C91.3 387.7 45.7 301.3 22.8 258.2L0 215Z" fill="#828282"></path><path d="M0 552L22.8 575.3C45.7 598.7 91.3 645.3 137 641.7C182.7 638 228.3 584 274 560.7C319.7 537.3 365.3 544.7 411.2 535.7C457 526.7 503 501.3 548.8 506.7C594.7 512 640.3 548 686 551.7C731.7 555.3 777.3 526.7 823 510.5C868.7 494.3 914.3 490.7 960 517.7C1005.7 544.7 1051.3 602.3 1097 638.3C1142.7 674.3 1188.3 688.7 1234 667C1279.7 645.3 1325.3 587.7 1371.2 578.7C1417 569.7 1463 609.3 1508.8 607.5C1554.7 605.7 1600.3 562.3 1646 560.5C1691.7 558.7 1737.3 598.3 1783 602C1828.7 605.7 1874.3 573.3 1897.2 557.2L1920 541L1920 453L1897.2 465.5C1874.3 478 1828.7 503 1783 490.3C1737.3 477.7 1691.7 427.3 1646 427.3C1600.3 427.3 1554.7 477.7 1508.8 493.8C1463 510 1417 492 1371.2 501C1325.3 510 1279.7 546 1234 555C1188.3 564 1142.7 546 1097 515.5C1051.3 485 1005.7 442 960 425.8C914.3 409.7 868.7 420.3 823 441.8C777.3 463.3 731.7 495.7 686 481.3C640.3 467 594.7 406 548.8 400.7C503 395.3 457 445.7 411.2 465.3C365.3 485 319.7 474 274 492C228.3 510 182.7 557 137 551.7C91.3 546.3 45.7 488.7 22.8 459.8L0 431Z" fill="#8f8f8f"></path><path d="M0 833L22.8 833C45.7 833 91.3 833 137 838.3C182.7 843.7 228.3 854.3 274 868.7C319.7 883 365.3 901 411.2 890.2C457 879.3 503 839.7 548.8 834.3C594.7 829 640.3 858 686 870.7C731.7 883.3 777.3 879.7 823 863.3C868.7 847 914.3 818 960 812.5C1005.7 807 1051.3 825 1097 832.3C1142.7 839.7 1188.3 836.3 1234 832.8C1279.7 829.3 1325.3 825.7 1371.2 840C1417 854.3 1463 886.7 1508.8 884.8C1554.7 883 1600.3 847 1646 823.7C1691.7 800.3 1737.3 789.7 1783 811.3C1828.7 833 1874.3 887 1897.2 914L1920 941L1920 539L1897.2 555.2C1874.3 571.3 1828.7 603.7 1783 600C1737.3 596.3 1691.7 556.7 1646 558.5C1600.3 560.3 1554.7 603.7 1508.8 605.5C1463 607.3 1417 567.7 1371.2 576.7C1325.3 585.7 1279.7 643.3 1234 665C1188.3 686.7 1142.7 672.3 1097 636.3C1051.3 600.3 1005.7 542.7 960 515.7C914.3 488.7 868.7 492.3 823 508.5C777.3 524.7 731.7 553.3 686 549.7C640.3 546 594.7 510 548.8 504.7C503 499.3 457 524.7 411.2 533.7C365.3 542.7 319.7 535.3 274 558.7C228.3 582 182.7 636 137 639.7C91.3 643.3 45.7 596.7 22.8 573.3L0 550Z" fill="#828282"></path><path d="M0 984L22.8 985.8C45.7 987.7 91.3 991.3 137 993.2C182.7 995 228.3 995 274 1000.3C319.7 1005.7 365.3 1016.3 411.2 1000C457 983.7 503 940.3 548.8 926C594.7 911.7 640.3 926.3 686 935.3C731.7 944.3 777.3 947.7 823 944C868.7 940.3 914.3 929.7 960 931.5C1005.7 933.3 1051.3 947.7 1097 956.7C1142.7 965.7 1188.3 969.3 1234 960.3C1279.7 951.3 1325.3 929.7 1371.2 933.3C1417 937 1463 966 1508.8 969.7C1554.7 973.3 1600.3 951.7 1646 940.8C1691.7 930 1737.3 930 1783 944.3C1828.7 958.7 1874.3 987.3 1897.2 1001.7L1920 1016L1920 939L1897.2 912C1874.3 885 1828.7 831 1783 809.3C1737.3 787.7 1691.7 798.3 1646 821.7C1600.3 845 1554.7 881 1508.8 882.8C1463 884.7 1417 852.3 1371.2 838C1325.3 823.7 1279.7 827.3 1234 830.8C1188.3 834.3 1142.7 837.7 1097 830.3C1051.3 823 1005.7 805 960 810.5C914.3 816 868.7 845 823 861.3C777.3 877.7 731.7 881.3 686 868.7C640.3 856 594.7 827 548.8 832.3C503 837.7 457 877.3 411.2 888.2C365.3 899 319.7 881 274 866.7C228.3 852.3 182.7 841.7 137 836.3C91.3 831 45.7 831 22.8 831L0 831Z" fill="#656565"></path><path d="M0 1081L22.8 1081C45.7 1081 91.3 1081 137 1081C182.7 1081 228.3 1081 274 1081C319.7 1081 365.3 1081 411.2 1081C457 1081 503 1081 548.8 1081C594.7 1081 640.3 1081 686 1081C731.7 1081 777.3 1081 823 1081C868.7 1081 914.3 1081 960 1081C1005.7 1081 1051.3 1081 1097 1081C1142.7 1081 1188.3 1081 1234 1081C1279.7 1081 1325.3 1081 1371.2 1081C1417 1081 1463 1081 1508.8 1081C1554.7 1081 1600.3 1081 1646 1081C1691.7 1081 1737.3 1081 1783 1081C1828.7 1081 1874.3 1081 1897.2 1081L1920 1081L1920 1014L1897.2 999.7C1874.3 985.3 1828.7 956.7 1783 942.3C1737.3 928 1691.7 928 1646 938.8C1600.3 949.7 1554.7 971.3 1508.8 967.7C1463 964 1417 935 1371.2 931.3C1325.3 927.7 1279.7 949.3 1234 958.3C1188.3 967.3 1142.7 963.7 1097 954.7C1051.3 945.7 1005.7 931.3 960 929.5C914.3 927.7 868.7 938.3 823 942C777.3 945.7 731.7 942.3 686 933.3C640.3 924.3 594.7 909.7 548.8 924C503 938.3 457 981.7 411.2 998C365.3 1014.3 319.7 1003.7 274 998.3C228.3 993 182.7 993 137 991.2C91.3 989.3 45.7 985.7 22.8 983.8L0 982Z" fill="#4e4e4e"></path></svg>