<svg id="visual" viewBox="0 0 1920 1080" width="1920" height="1080" xmlns="http://www.w3.org/2000/svg" xmlns:xlink="http://www.w3.org/1999/xlink" version="1.1"><rect width="1920" height="1080" fill="#dddddd"></rect><g><g transform="translate(1441 821)"><path d="M0 -106.3L83.1 -66.3L103.6 23.7L46.1 95.8L-46.1 95.8L-103.6 23.7L-83.1 -66.3Z" stroke="#000000" fill="none" stroke-width="10"></path></g><g transform="translate(904 779)"><path d="M0 -70L54.7 -43.6L68.2 15.6L30.4 63.1L-30.4 63.1L-68.2 15.6L-54.7 -43.6Z" stroke="#000000" fill="none" stroke-width="10"></path></g><g transform="translate(1345 585)"><path d="M0 -71L55.5 -44.3L69.2 15.8L30.8 64L-30.8 64L-69.2 15.8L-55.5 -44.3Z" stroke="#000000" fill="none" stroke-width="10"></path></g><g transform="translate(658 267)"><path d="M0 -74L57.9 -46.1L72.1 16.5L32.1 66.7L-32.1 66.7L-72.1 16.5L-57.9 -46.1Z" stroke="#000000" fill="none" stroke-width="10"></path></g><g transform="translate(117 784)"><path d="M0 -59L46.1 -36.8L57.5 13.1L25.6 53.2L-25.6 53.2L-57.5 13.1L-46.1 -36.8Z" stroke="#000000" fill="none" stroke-width="10"></path></g><g transform="translate(586 575)"><path d="M0 -89L69.6 -55.5L86.8 19.8L38.6 80.2L-38.6 80.2L-86.8 19.8L-69.6 -55.5Z" stroke="#000000" fill="none" stroke-width="10"></path></g><g transform="translate(332 241)"><path d="M0 -81L63.3 -50.5L79 18L35.1 73L-35.1 73L-79 18L-63.3 -50.5Z" stroke="#000000" fill="none" stroke-width="10"></path></g></g></svg>