<svg id="visual" viewBox="0 0 1920 1080" width="1920" height="1080" xmlns="http://www.w3.org/2000/svg" xmlns:xlink="http://www.w3.org/1999/xlink" version="1.1"><path d="M0 325L21.3 334C42.7 343 85.3 361 128 350.2C170.7 339.3 213.3 299.7 256 265.5C298.7 231.3 341.3 202.7 384 200.8C426.7 199 469.3 224 512 252.8C554.7 281.7 597.3 314.3 640 332.3C682.7 350.3 725.3 353.7 768 324.8C810.7 296 853.3 235 896 220.7C938.7 206.3 981.3 238.7 1024 267.5C1066.7 296.3 1109.3 321.7 1152 325.3C1194.7 329 1237.3 311 1280 269.5C1322.7 228 1365.3 163 1408 163C1450.7 163 1493.3 228 1536 269.5C1578.7 311 1621.3 329 1664 298.3C1706.7 267.7 1749.3 188.3 1792 177.5C1834.7 166.7 1877.3 224.3 1898.7 253.2L1920 282L1920 0L1898.7 0C1877.3 0 1834.7 0 1792 0C1749.3 0 1706.7 0 1664 0C1621.3 0 1578.7 0 1536 0C1493.3 0 1450.7 0 1408 0C1365.3 0 1322.7 0 1280 0C1237.3 0 1194.7 0 1152 0C1109.3 0 1066.7 0 1024 0C981.3 0 938.7 0 896 0C853.3 0 810.7 0 768 0C725.3 0 682.7 0 640 0C597.3 0 554.7 0 512 0C469.3 0 426.7 0 384 0C341.3 0 298.7 0 256 0C213.3 0 170.7 0 128 0C85.3 0 42.7 0 21.3 0L0 0Z" fill="#4e4e4e"></path><path d="M0 779L21.3 746.5C42.7 714 85.3 649 128 614.7C170.7 580.3 213.3 576.7 256 556.8C298.7 537 341.3 501 384 497.5C426.7 494 469.3 523 512 532C554.7 541 597.3 530 640 521C682.7 512 725.3 505 768 519.5C810.7 534 853.3 570 896 591.5C938.7 613 981.3 620 1024 600.2C1066.7 580.3 1109.3 533.7 1152 492.3C1194.7 451 1237.3 415 1280 404.2C1322.7 393.3 1365.3 407.7 1408 416.7C1450.7 425.7 1493.3 429.3 1536 460C1578.7 490.7 1621.3 548.3 1664 546.5C1706.7 544.7 1749.3 483.3 1792 486.8C1834.7 490.3 1877.3 558.7 1898.7 592.8L1920 627L1920 280L1898.7 251.2C1877.3 222.3 1834.7 164.7 1792 175.5C1749.3 186.3 1706.7 265.7 1664 296.3C1621.3 327 1578.7 309 1536 267.5C1493.3 226 1450.7 161 1408 161C1365.3 161 1322.7 226 1280 267.5C1237.3 309 1194.7 327 1152 323.3C1109.3 319.7 1066.7 294.3 1024 265.5C981.3 236.7 938.7 204.3 896 218.7C853.3 233 810.7 294 768 322.8C725.3 351.7 682.7 348.3 640 330.3C597.3 312.3 554.7 279.7 512 250.8C469.3 222 426.7 197 384 198.8C341.3 200.7 298.7 229.3 256 263.5C213.3 297.7 170.7 337.3 128 348.2C85.3 359 42.7 341 21.3 332L0 323Z" fill="#656565"></path><path d="M0 811L21.3 789.3C42.7 767.7 85.3 724.3 128 693.7C170.7 663 213.3 645 256 623.5C298.7 602 341.3 577 384 569.8C426.7 562.7 469.3 573.3 512 585.8C554.7 598.3 597.3 612.7 640 619.8C682.7 627 725.3 627 768 636C810.7 645 853.3 663 896 670.3C938.7 677.7 981.3 674.3 1024 665.3C1066.7 656.3 1109.3 641.7 1152 616.3C1194.7 591 1237.3 555 1280 528C1322.7 501 1365.3 483 1408 486.7C1450.7 490.3 1493.3 515.7 1536 555.3C1578.7 595 1621.3 649 1664 650.8C1706.7 652.7 1749.3 602.3 1792 597C1834.7 591.7 1877.3 631.3 1898.7 651.2L1920 671L1920 625L1898.7 590.8C1877.3 556.7 1834.7 488.3 1792 484.8C1749.3 481.3 1706.7 542.7 1664 544.5C1621.3 546.3 1578.7 488.7 1536 458C1493.3 427.3 1450.7 423.7 1408 414.7C1365.3 405.7 1322.7 391.3 1280 402.2C1237.3 413 1194.7 449 1152 490.3C1109.3 531.7 1066.7 578.3 1024 598.2C981.3 618 938.7 611 896 589.5C853.3 568 810.7 532 768 517.5C725.3 503 682.7 510 640 519C597.3 528 554.7 539 512 530C469.3 521 426.7 492 384 495.5C341.3 499 298.7 535 256 554.8C213.3 574.7 170.7 578.3 128 612.7C85.3 647 42.7 712 21.3 744.5L0 777Z" fill="#828282"></path><path d="M0 854L21.3 837.8C42.7 821.7 85.3 789.3 128 775C170.7 760.7 213.3 764.3 256 737.3C298.7 710.3 341.3 652.7 384 638.2C426.7 623.7 469.3 652.3 512 683C554.7 713.7 597.3 746.3 640 748.2C682.7 750 725.3 721 768 726.3C810.7 731.7 853.3 771.3 896 785.8C938.7 800.3 981.3 789.7 1024 780.7C1066.7 771.7 1109.3 764.3 1152 742.7C1194.7 721 1237.3 685 1280 650.8C1322.7 616.7 1365.3 584.3 1408 586.2C1450.7 588 1493.3 624 1536 665.3C1578.7 706.7 1621.3 753.3 1664 749.7C1706.7 746 1749.3 692 1792 690.2C1834.7 688.3 1877.3 738.7 1898.7 763.8L1920 789L1920 669L1898.7 649.2C1877.3 629.3 1834.7 589.7 1792 595C1749.3 600.3 1706.7 650.7 1664 648.8C1621.3 647 1578.7 593 1536 553.3C1493.3 513.7 1450.7 488.3 1408 484.7C1365.3 481 1322.7 499 1280 526C1237.3 553 1194.7 589 1152 614.3C1109.3 639.7 1066.7 654.3 1024 663.3C981.3 672.3 938.7 675.7 896 668.3C853.3 661 810.7 643 768 634C725.3 625 682.7 625 640 617.8C597.3 610.7 554.7 596.3 512 583.8C469.3 571.3 426.7 560.7 384 567.8C341.3 575 298.7 600 256 621.5C213.3 643 170.7 661 128 691.7C85.3 722.3 42.7 765.7 21.3 787.3L0 809Z" fill="#8f8f8f"></path><path d="M0 897L21.3 882.7C42.7 868.3 85.3 839.7 128 838C170.7 836.3 213.3 861.7 256 845.5C298.7 829.3 341.3 771.7 384 757.2C426.7 742.7 469.3 771.3 512 791.2C554.7 811 597.3 822 640 811.2C682.7 800.3 725.3 767.7 768 783.8C810.7 800 853.3 865 896 886.7C938.7 908.3 981.3 886.7 1024 879.5C1066.7 872.3 1109.3 879.7 1152 859.8C1194.7 840 1237.3 793 1280 758.7C1322.7 724.3 1365.3 702.7 1408 700.8C1450.7 699 1493.3 717 1536 745.8C1578.7 774.7 1621.3 814.3 1664 812.7C1706.7 811 1749.3 768 1792 768C1834.7 768 1877.3 811 1898.7 832.5L1920 854L1920 787L1898.7 761.8C1877.3 736.7 1834.7 686.3 1792 688.2C1749.3 690 1706.7 744 1664 747.7C1621.3 751.3 1578.7 704.7 1536 663.3C1493.3 622 1450.7 586 1408 584.2C1365.3 582.3 1322.7 614.7 1280 648.8C1237.3 683 1194.7 719 1152 740.7C1109.3 762.3 1066.7 769.7 1024 778.7C981.3 787.7 938.7 798.3 896 783.8C853.3 769.3 810.7 729.7 768 724.3C725.3 719 682.7 748 640 746.2C597.3 744.3 554.7 711.7 512 681C469.3 650.3 426.7 621.7 384 636.2C341.3 650.7 298.7 708.3 256 735.3C213.3 762.3 170.7 758.7 128 773C85.3 787.3 42.7 819.7 21.3 835.8L0 852Z" fill="#828282"></path><path d="M0 973L21.3 976.7C42.7 980.3 85.3 987.7 128 989.5C170.7 991.3 213.3 987.7 256 973.2C298.7 958.7 341.3 933.3 384 936.8C426.7 940.3 469.3 972.7 512 983.5C554.7 994.3 597.3 983.7 640 958.5C682.7 933.3 725.3 893.7 768 899C810.7 904.3 853.3 954.7 896 974.5C938.7 994.3 981.3 983.7 1024 983.7C1066.7 983.7 1109.3 994.3 1152 978.2C1194.7 962 1237.3 919 1280 893.8C1322.7 868.7 1365.3 861.3 1408 861.3C1450.7 861.3 1493.3 868.7 1536 881.3C1578.7 894 1621.3 912 1664 910.2C1706.7 908.3 1749.3 886.7 1792 892C1834.7 897.3 1877.3 929.7 1898.7 945.8L1920 962L1920 852L1898.7 830.5C1877.3 809 1834.7 766 1792 766C1749.3 766 1706.7 809 1664 810.7C1621.3 812.3 1578.7 772.7 1536 743.8C1493.3 715 1450.7 697 1408 698.8C1365.3 700.7 1322.7 722.3 1280 756.7C1237.3 791 1194.7 838 1152 857.8C1109.3 877.7 1066.7 870.3 1024 877.5C981.3 884.7 938.7 906.3 896 884.7C853.3 863 810.7 798 768 781.8C725.3 765.7 682.7 798.3 640 809.2C597.3 820 554.7 809 512 789.2C469.3 769.3 426.7 740.7 384 755.2C341.3 769.7 298.7 827.3 256 843.5C213.3 859.7 170.7 834.3 128 836C85.3 837.7 42.7 866.3 21.3 880.7L0 895Z" fill="#656565"></path><path d="M0 1081L21.3 1081C42.7 1081 85.3 1081 128 1081C170.7 1081 213.3 1081 256 1081C298.7 1081 341.3 1081 384 1081C426.7 1081 469.3 1081 512 1081C554.7 1081 597.3 1081 640 1081C682.7 1081 725.3 1081 768 1081C810.7 1081 853.3 1081 896 1081C938.7 1081 981.3 1081 1024 1081C1066.7 1081 1109.3 1081 1152 1081C1194.7 1081 1237.3 1081 1280 1081C1322.7 1081 1365.3 1081 1408 1081C1450.7 1081 1493.3 1081 1536 1081C1578.7 1081 1621.3 1081 1664 1081C1706.7 1081 1749.3 1081 1792 1081C1834.7 1081 1877.3 1081 1898.7 1081L1920 1081L1920 960L1898.7 943.8C1877.3 927.7 1834.7 895.3 1792 890C1749.3 884.7 1706.7 906.3 1664 908.2C1621.3 910 1578.7 892 1536 879.3C1493.3 866.7 1450.7 859.3 1408 859.3C1365.3 859.3 1322.7 866.7 1280 891.8C1237.3 917 1194.7 960 1152 976.2C1109.3 992.3 1066.7 981.7 1024 981.7C981.3 981.7 938.7 992.3 896 972.5C853.3 952.7 810.7 902.3 768 897C725.3 891.7 682.7 931.3 640 956.5C597.3 981.7 554.7 992.3 512 981.5C469.3 970.7 426.7 938.3 384 934.8C341.3 931.3 298.7 956.7 256 971.2C213.3 985.7 170.7 989.3 128 987.5C85.3 985.7 42.7 978.3 21.3 974.7L0 971Z" fill="#4e4e4e"></path></svg>