<svg id="visual" viewBox="0 0 1920 1080" width="1920" height="1080" xmlns="http://www.w3.org/2000/svg" xmlns:xlink="http://www.w3.org/1999/xlink" version="1.1"><rect width="1920" height="1080" fill="#DDDDDD"></rect><g><g transform="translate(1764 764)"><path d="M0 -106.3L83.1 -66.3L103.6 23.7L46.1 95.8L-46.1 95.8L-103.6 23.7L-83.1 -66.3Z" fill="none" stroke="#000000" stroke-width="12"></path></g><g transform="translate(255 945)"><path d="M0 -90L70.4 -56.1L87.7 20L39 81.1L-39 81.1L-87.7 20L-70.4 -56.1Z" fill="none" stroke="#000000" stroke-width="12"></path></g><g transform="translate(699 249)"><path d="M0 -105L82.1 -65.5L102.4 23.4L45.6 94.6L-45.6 94.6L-102.4 23.4L-82.1 -65.5Z" stroke="#000000" fill="none" stroke-width="12"></path></g><g transform="translate(1037 244)"><path d="M0 -97L75.8 -60.5L94.6 21.6L42.1 87.4L-42.1 87.4L-94.6 21.6L-75.8 -60.5Z" stroke="#000000" fill="none" stroke-width="12"></path></g><g transform="translate(607 642)"><path d="M0 -90L70.4 -56.1L87.7 20L39 81.1L-39 81.1L-87.7 20L-70.4 -56.1Z" stroke="#000000" fill="none" stroke-width="12"></path></g><g transform="translate(293 396)"><path d="M0 -105L82.1 -65.5L102.4 23.4L45.6 94.6L-45.6 94.6L-102.4 23.4L-82.1 -65.5Z" stroke="#000000" fill="none" stroke-width="12"></path></g></g></svg>