<svg id="visual" viewBox="0 0 1920 1080" width="1920" height="1080" xmlns="http://www.w3.org/2000/svg" xmlns:xlink="http://www.w3.org/1999/xlink" version="1.1"><path d="M0 293L21.3 273.2C42.7 253.3 85.3 213.7 128 201C170.7 188.3 213.3 202.7 256 227.8C298.7 253 341.3 289 384 301.7C426.7 314.3 469.3 303.7 512 271.3C554.7 239 597.3 185 640 158C682.7 131 725.3 131 768 154.3C810.7 177.7 853.3 224.3 896 238.7C938.7 253 981.3 235 1024 236.8C1066.7 238.7 1109.3 260.3 1152 238.7C1194.7 217 1237.3 152 1280 173.5C1322.7 195 1365.3 303 1408 319.3C1450.7 335.7 1493.3 260.3 1536 233.3C1578.7 206.3 1621.3 227.7 1664 231.2C1706.7 234.7 1749.3 220.3 1792 211.3C1834.7 202.3 1877.3 198.7 1898.7 196.8L1920 195L1920 0L1898.7 0C1877.3 0 1834.7 0 1792 0C1749.3 0 1706.7 0 1664 0C1621.3 0 1578.7 0 1536 0C1493.3 0 1450.7 0 1408 0C1365.3 0 1322.7 0 1280 0C1237.3 0 1194.7 0 1152 0C1109.3 0 1066.7 0 1024 0C981.3 0 938.7 0 896 0C853.3 0 810.7 0 768 0C725.3 0 682.7 0 640 0C597.3 0 554.7 0 512 0C469.3 0 426.7 0 384 0C341.3 0 298.7 0 256 0C213.3 0 170.7 0 128 0C85.3 0 42.7 0 21.3 0L0 0Z" fill="#4e4e4e"></path><path d="M0 498L21.3 487.2C42.7 476.3 85.3 454.7 128 461.8C170.7 469 213.3 505 256 506.8C298.7 508.7 341.3 476.3 384 454.7C426.7 433 469.3 422 512 422C554.7 422 597.3 433 640 449.3C682.7 465.7 725.3 487.3 768 512.5C810.7 537.7 853.3 566.3 896 548.3C938.7 530.3 981.3 465.7 1024 447.7C1066.7 429.7 1109.3 458.3 1152 451C1194.7 443.7 1237.3 400.3 1280 411.2C1322.7 422 1365.3 487 1408 542.8C1450.7 598.7 1493.3 645.3 1536 648.8C1578.7 652.3 1621.3 612.7 1664 576.7C1706.7 540.7 1749.3 508.3 1792 488.7C1834.7 469 1877.3 462 1898.7 458.5L1920 455L1920 193L1898.7 194.8C1877.3 196.7 1834.7 200.3 1792 209.3C1749.3 218.3 1706.7 232.7 1664 229.2C1621.3 225.7 1578.7 204.3 1536 231.3C1493.3 258.3 1450.7 333.7 1408 317.3C1365.3 301 1322.7 193 1280 171.5C1237.3 150 1194.7 215 1152 236.7C1109.3 258.3 1066.7 236.7 1024 234.8C981.3 233 938.7 251 896 236.7C853.3 222.3 810.7 175.7 768 152.3C725.3 129 682.7 129 640 156C597.3 183 554.7 237 512 269.3C469.3 301.7 426.7 312.3 384 299.7C341.3 287 298.7 251 256 225.8C213.3 200.7 170.7 186.3 128 199C85.3 211.7 42.7 251.3 21.3 271.2L0 291Z" fill="#656565"></path><path d="M0 627L21.3 632.5C42.7 638 85.3 649 128 659.8C170.7 670.7 213.3 681.3 256 665.2C298.7 649 341.3 606 384 591.7C426.7 577.3 469.3 591.7 512 588C554.7 584.3 597.3 562.7 640 559C682.7 555.3 725.3 569.7 768 591.3C810.7 613 853.3 642 896 649.2C938.7 656.3 981.3 641.7 1024 648.8C1066.7 656 1109.3 685 1152 672.5C1194.7 660 1237.3 606 1280 613.2C1322.7 620.3 1365.3 688.7 1408 724.7C1450.7 760.7 1493.3 764.3 1536 748.2C1578.7 732 1621.3 696 1664 685.2C1706.7 674.3 1749.3 688.7 1792 697.7C1834.7 706.7 1877.3 710.3 1898.7 712.2L1920 714L1920 453L1898.7 456.5C1877.3 460 1834.7 467 1792 486.7C1749.3 506.3 1706.7 538.7 1664 574.7C1621.3 610.7 1578.7 650.3 1536 646.8C1493.3 643.3 1450.7 596.7 1408 540.8C1365.3 485 1322.7 420 1280 409.2C1237.3 398.3 1194.7 441.7 1152 449C1109.3 456.3 1066.7 427.7 1024 445.7C981.3 463.7 938.7 528.3 896 546.3C853.3 564.3 810.7 535.7 768 510.5C725.3 485.3 682.7 463.7 640 447.3C597.3 431 554.7 420 512 420C469.3 420 426.7 431 384 452.7C341.3 474.3 298.7 506.7 256 504.8C213.3 503 170.7 467 128 459.8C85.3 452.7 42.7 474.3 21.3 485.2L0 496Z" fill="#828282"></path><path d="M0 735L21.3 742.3C42.7 749.7 85.3 764.3 128 764.3C170.7 764.3 213.3 749.7 256 737C298.7 724.3 341.3 713.7 384 712C426.7 710.3 469.3 717.7 512 714C554.7 710.3 597.3 695.7 640 693.8C682.7 692 725.3 703 768 722.8C810.7 742.7 853.3 771.3 896 769.5C938.7 767.7 981.3 735.3 1024 726.3C1066.7 717.3 1109.3 731.7 1152 731.7C1194.7 731.7 1237.3 717.3 1280 737.2C1322.7 757 1365.3 811 1408 834.3C1450.7 857.7 1493.3 850.3 1536 837.7C1578.7 825 1621.3 807 1664 807C1706.7 807 1749.3 825 1792 817.8C1834.7 810.7 1877.3 778.3 1898.7 762.2L1920 746L1920 712L1898.7 710.2C1877.3 708.3 1834.7 704.7 1792 695.7C1749.3 686.7 1706.7 672.3 1664 683.2C1621.3 694 1578.7 730 1536 746.2C1493.3 762.3 1450.7 758.7 1408 722.7C1365.3 686.7 1322.7 618.3 1280 611.2C1237.3 604 1194.7 658 1152 670.5C1109.3 683 1066.7 654 1024 646.8C981.3 639.7 938.7 654.3 896 647.2C853.3 640 810.7 611 768 589.3C725.3 567.7 682.7 553.3 640 557C597.3 560.7 554.7 582.3 512 586C469.3 589.7 426.7 575.3 384 589.7C341.3 604 298.7 647 256 663.2C213.3 679.3 170.7 668.7 128 657.8C85.3 647 42.7 636 21.3 630.5L0 625Z" fill="#8f8f8f"></path><path d="M0 919L21.3 915.3C42.7 911.7 85.3 904.3 128 893.5C170.7 882.7 213.3 868.3 256 866.7C298.7 865 341.3 876 384 881.5C426.7 887 469.3 887 512 878C554.7 869 597.3 851 640 852.7C682.7 854.3 725.3 875.7 768 877.3C810.7 879 853.3 861 896 853.8C938.7 846.7 981.3 850.3 1024 848.7C1066.7 847 1109.3 840 1152 845.5C1194.7 851 1237.3 869 1280 881.5C1322.7 894 1365.3 901 1408 913.5C1450.7 926 1493.3 944 1536 938.7C1578.7 933.3 1621.3 904.7 1664 892.2C1706.7 879.7 1749.3 883.3 1792 890.5C1834.7 897.7 1877.3 908.3 1898.7 913.7L1920 919L1920 744L1898.7 760.2C1877.3 776.3 1834.7 808.7 1792 815.8C1749.3 823 1706.7 805 1664 805C1621.3 805 1578.7 823 1536 835.7C1493.3 848.3 1450.7 855.7 1408 832.3C1365.3 809 1322.7 755 1280 735.2C1237.3 715.3 1194.7 729.7 1152 729.7C1109.3 729.7 1066.7 715.3 1024 724.3C981.3 733.3 938.7 765.7 896 767.5C853.3 769.3 810.7 740.7 768 720.8C725.3 701 682.7 690 640 691.8C597.3 693.7 554.7 708.3 512 712C469.3 715.7 426.7 708.3 384 710C341.3 711.7 298.7 722.3 256 735C213.3 747.7 170.7 762.3 128 762.3C85.3 762.3 42.7 747.7 21.3 740.3L0 733Z" fill="#828282"></path><path d="M0 973L21.3 976.7C42.7 980.3 85.3 987.7 128 987.7C170.7 987.7 213.3 980.3 256 982C298.7 983.7 341.3 994.3 384 987.2C426.7 980 469.3 955 512 942.5C554.7 930 597.3 930 640 937.2C682.7 944.3 725.3 958.7 768 962.2C810.7 965.7 853.3 958.3 896 958.3C938.7 958.3 981.3 965.7 1024 960.3C1066.7 955 1109.3 937 1152 931.7C1194.7 926.3 1237.3 933.7 1280 940.8C1322.7 948 1365.3 955 1408 969.3C1450.7 983.7 1493.3 1005.3 1536 1007.2C1578.7 1009 1621.3 991 1664 987.3C1706.7 983.7 1749.3 994.3 1792 992.5C1834.7 990.7 1877.3 976.3 1898.7 969.2L1920 962L1920 917L1898.7 911.7C1877.3 906.3 1834.7 895.7 1792 888.5C1749.3 881.3 1706.7 877.7 1664 890.2C1621.3 902.7 1578.7 931.3 1536 936.7C1493.3 942 1450.7 924 1408 911.5C1365.3 899 1322.7 892 1280 879.5C1237.3 867 1194.7 849 1152 843.5C1109.3 838 1066.7 845 1024 846.7C981.3 848.3 938.7 844.7 896 851.8C853.3 859 810.7 877 768 875.3C725.3 873.7 682.7 852.3 640 850.7C597.3 849 554.7 867 512 876C469.3 885 426.7 885 384 879.5C341.3 874 298.7 863 256 864.7C213.3 866.3 170.7 880.7 128 891.5C85.3 902.3 42.7 909.7 21.3 913.3L0 917Z" fill="#656565"></path><path d="M0 1081L21.3 1081C42.7 1081 85.3 1081 128 1081C170.7 1081 213.3 1081 256 1081C298.7 1081 341.3 1081 384 1081C426.7 1081 469.3 1081 512 1081C554.7 1081 597.3 1081 640 1081C682.7 1081 725.3 1081 768 1081C810.7 1081 853.3 1081 896 1081C938.7 1081 981.3 1081 1024 1081C1066.7 1081 1109.3 1081 1152 1081C1194.7 1081 1237.3 1081 1280 1081C1322.7 1081 1365.3 1081 1408 1081C1450.7 1081 1493.3 1081 1536 1081C1578.7 1081 1621.3 1081 1664 1081C1706.7 1081 1749.3 1081 1792 1081C1834.7 1081 1877.3 1081 1898.7 1081L1920 1081L1920 960L1898.7 967.2C1877.3 974.3 1834.7 988.7 1792 990.5C1749.3 992.3 1706.7 981.7 1664 985.3C1621.3 989 1578.7 1007 1536 1005.2C1493.3 1003.3 1450.7 981.7 1408 967.3C1365.3 953 1322.7 946 1280 938.8C1237.3 931.7 1194.7 924.3 1152 929.7C1109.3 935 1066.7 953 1024 958.3C981.3 963.7 938.7 956.3 896 956.3C853.3 956.3 810.7 963.7 768 960.2C725.3 956.7 682.7 942.3 640 935.2C597.3 928 554.7 928 512 940.5C469.3 953 426.7 978 384 985.2C341.3 992.3 298.7 981.7 256 980C213.3 978.3 170.7 985.7 128 985.7C85.3 985.7 42.7 978.3 21.3 974.7L0 971Z" fill="#4e4e4e"></path></svg>