<svg id="visual" viewBox="0 0 1920 1080" width="1920" height="1080" xmlns="http://www.w3.org/2000/svg" xmlns:xlink="http://www.w3.org/1999/xlink" version="1.1"><rect width="1920" height="1080" fill="#DDDDDD"></rect><g><g transform="translate(887 664)"><path d="M0 -106.3L83.1 -66.3L103.6 23.7L46.1 95.8L-46.1 95.8L-103.6 23.7L-83.1 -66.3Z" fill="none" stroke="#000000" stroke-width="12"></path></g><g transform="translate(246 451)"><path d="M0 -87L68 -54.2L84.8 19.4L37.7 78.4L-37.7 78.4L-84.8 19.4L-68 -54.2Z" fill="none" stroke="#000000" stroke-width="12"></path></g><g transform="translate(1514 273)"><path d="M0 -86L67.2 -53.6L83.8 19.1L37.3 77.5L-37.3 77.5L-83.8 19.1L-67.2 -53.6Z" stroke="#000000" fill="none" stroke-width="12"></path></g><g transform="translate(403 869)"><path d="M0 -103L80.5 -64.2L100.4 22.9L44.7 92.8L-44.7 92.8L-100.4 22.9L-80.5 -64.2Z" stroke="#000000" fill="none" stroke-width="12"></path></g><g transform="translate(979 856)"><path d="M0 -97L75.8 -60.5L94.6 21.6L42.1 87.4L-42.1 87.4L-94.6 21.6L-75.8 -60.5Z" stroke="#000000" fill="none" stroke-width="12"></path></g><g transform="translate(1735 317)"><path d="M0 -102L79.7 -63.6L99.4 22.7L44.3 91.9L-44.3 91.9L-99.4 22.7L-79.7 -63.6Z" stroke="#000000" fill="none" stroke-width="12"></path></g></g></svg>