<svg id="visual" viewBox="0 0 1920 1080" width="1920" height="1080" xmlns="http://www.w3.org/2000/svg" xmlns:xlink="http://www.w3.org/1999/xlink" version="1.1"><rect width="1920" height="1080" fill="#dddddd"></rect><g><g transform="translate(1723 408)"><path d="M0 -106.3L83.1 -66.3L103.6 23.7L46.1 95.8L-46.1 95.8L-103.6 23.7L-83.1 -66.3Z" stroke="#000000" fill="none" stroke-width="10"></path></g><g transform="translate(205 490)"><path d="M0 -60L46.9 -37.4L58.5 13.4L26 54.1L-26 54.1L-58.5 13.4L-46.9 -37.4Z" stroke="#000000" fill="none" stroke-width="10"></path></g><g transform="translate(413 579)"><path d="M0 -65L50.8 -40.5L63.4 14.5L28.2 58.6L-28.2 58.6L-63.4 14.5L-50.8 -40.5Z" stroke="#000000" fill="none" stroke-width="10"></path></g><g transform="translate(582 855)"><path d="M0 -89L69.6 -55.5L86.8 19.8L38.6 80.2L-38.6 80.2L-86.8 19.8L-69.6 -55.5Z" stroke="#000000" fill="none" stroke-width="10"></path></g><g transform="translate(133 695)"><path d="M0 -84L65.7 -52.4L81.9 18.7L36.4 75.7L-36.4 75.7L-81.9 18.7L-65.7 -52.4Z" stroke="#000000" fill="none" stroke-width="10"></path></g></g></svg>