<svg id="visual" viewBox="0 0 1920 1080" width="1920" height="1080" xmlns="http://www.w3.org/2000/svg" xmlns:xlink="http://www.w3.org/1999/xlink" version="1.1"><rect x="0" y="0" width="1920" height="1080" fill="#d5d5d5"></rect><path d="M0 529L45.7 503.8C91.3 478.7 182.7 428.3 274.2 429.7C365.7 431 457.3 484 548.8 525.8C640.3 567.7 731.7 598.3 823 613C914.3 627.7 1005.7 626.3 1097 586.2C1188.3 546 1279.7 467 1371.2 435.5C1462.7 404 1554.3 420 1645.8 448.7C1737.3 477.3 1828.7 518.7 1874.3 539.3L1920 560L1920 1081L1874.3 1081C1828.7 1081 1737.3 1081 1645.8 1081C1554.3 1081 1462.7 1081 1371.2 1081C1279.7 1081 1188.3 1081 1097 1081C1005.7 1081 914.3 1081 823 1081C731.7 1081 640.3 1081 548.8 1081C457.3 1081 365.7 1081 274.2 1081C182.7 1081 91.3 1081 45.7 1081L0 1081Z" fill="#8f8f8f"></path><path d="M0 642L45.7 654.5C91.3 667 182.7 692 274.2 684.5C365.7 677 457.3 637 548.8 613.5C640.3 590 731.7 583 823 571.7C914.3 560.3 1005.7 544.7 1097 536.3C1188.3 528 1279.7 527 1371.2 546C1462.7 565 1554.3 604 1645.8 600.7C1737.3 597.3 1828.7 551.7 1874.3 528.8L1920 506L1920 1081L1874.3 1081C1828.7 1081 1737.3 1081 1645.8 1081C1554.3 1081 1462.7 1081 1371.2 1081C1279.7 1081 1188.3 1081 1097 1081C1005.7 1081 914.3 1081 823 1081C731.7 1081 640.3 1081 548.8 1081C457.3 1081 365.7 1081 274.2 1081C182.7 1081 91.3 1081 45.7 1081L0 1081Z" fill="#7c7c7c"></path><path d="M0 741L45.7 744.3C91.3 747.7 182.7 754.3 274.2 747C365.7 739.7 457.3 718.3 548.8 722C640.3 725.7 731.7 754.3 823 752C914.3 749.7 1005.7 716.3 1097 709.2C1188.3 702 1279.7 721 1371.2 719.5C1462.7 718 1554.3 696 1645.8 675.7C1737.3 655.3 1828.7 636.7 1874.3 627.3L1920 618L1920 1081L1874.3 1081C1828.7 1081 1737.3 1081 1645.8 1081C1554.3 1081 1462.7 1081 1371.2 1081C1279.7 1081 1188.3 1081 1097 1081C1005.7 1081 914.3 1081 823 1081C731.7 1081 640.3 1081 548.8 1081C457.3 1081 365.7 1081 274.2 1081C182.7 1081 91.3 1081 45.7 1081L0 1081Z" fill="#6a6a6a"></path><path d="M0 778L45.7 788.5C91.3 799 182.7 820 274.2 824.5C365.7 829 457.3 817 548.8 826.5C640.3 836 731.7 867 823 869.2C914.3 871.3 1005.7 844.7 1097 845C1188.3 845.3 1279.7 872.7 1371.2 879.2C1462.7 885.7 1554.3 871.3 1645.8 860.3C1737.3 849.3 1828.7 841.7 1874.3 837.8L1920 834L1920 1081L1874.3 1081C1828.7 1081 1737.3 1081 1645.8 1081C1554.3 1081 1462.7 1081 1371.2 1081C1279.7 1081 1188.3 1081 1097 1081C1005.7 1081 914.3 1081 823 1081C731.7 1081 640.3 1081 548.8 1081C457.3 1081 365.7 1081 274.2 1081C182.7 1081 91.3 1081 45.7 1081L0 1081Z" fill="#5c5c5c"></path><path d="M0 985L45.7 976.2C91.3 967.3 182.7 949.7 274.2 940.7C365.7 931.7 457.3 931.3 548.8 922.8C640.3 914.3 731.7 897.7 823 886.5C914.3 875.3 1005.7 869.7 1097 880.7C1188.3 891.7 1279.7 919.3 1371.2 940.2C1462.7 961 1554.3 975 1645.8 963.7C1737.3 952.3 1828.7 915.7 1874.3 897.3L1920 879L1920 1081L1874.3 1081C1828.7 1081 1737.3 1081 1645.8 1081C1554.3 1081 1462.7 1081 1371.2 1081C1279.7 1081 1188.3 1081 1097 1081C1005.7 1081 914.3 1081 823 1081C731.7 1081 640.3 1081 548.8 1081C457.3 1081 365.7 1081 274.2 1081C182.7 1081 91.3 1081 45.7 1081L0 1081Z" fill="#4e4e4e"></path></svg>