<svg id="visual" viewBox="0 0 1920 1080" width="1920" height="1080" xmlns="http://www.w3.org/2000/svg" xmlns:xlink="http://www.w3.org/1999/xlink" version="1.1"><path d="M0 368L22.8 326.7C45.7 285.3 91.3 202.7 137 177.5C182.7 152.3 228.3 184.7 274 218.8C319.7 253 365.3 289 411.2 276.3C457 263.7 503 202.3 548.8 170C594.7 137.7 640.3 134.3 686 139.8C731.7 145.3 777.3 159.7 823 172.2C868.7 184.7 914.3 195.3 960 200.7C1005.7 206 1051.3 206 1097 200.7C1142.7 195.3 1188.3 184.7 1234 186.5C1279.7 188.3 1325.3 202.7 1371.2 209.8C1417 217 1463 217 1508.8 227.8C1554.7 238.7 1600.3 260.3 1646 278.3C1691.7 296.3 1737.3 310.7 1783 310.7C1828.7 310.7 1874.3 296.3 1897.2 289.2L1920 282L1920 0L1897.2 0C1874.3 0 1828.7 0 1783 0C1737.3 0 1691.7 0 1646 0C1600.3 0 1554.7 0 1508.8 0C1463 0 1417 0 1371.2 0C1325.3 0 1279.7 0 1234 0C1188.3 0 1142.7 0 1097 0C1051.3 0 1005.7 0 960 0C914.3 0 868.7 0 823 0C777.3 0 731.7 0 686 0C640.3 0 594.7 0 548.8 0C503 0 457 0 411.2 0C365.3 0 319.7 0 274 0C228.3 0 182.7 0 137 0C91.3 0 45.7 0 22.8 0L0 0Z" fill="#4e4e4e"></path><path d="M0 498L22.8 444C45.7 390 91.3 282 137 244.2C182.7 206.3 228.3 238.7 274 269.2C319.7 299.7 365.3 328.3 411.2 326.5C457 324.7 503 292.3 548.8 278C594.7 263.7 640.3 267.3 686 262C731.7 256.7 777.3 242.3 823 251.3C868.7 260.3 914.3 292.7 960 294.5C1005.7 296.3 1051.3 267.7 1097 247.8C1142.7 228 1188.3 217 1234 226C1279.7 235 1325.3 264 1371.2 285.7C1417 307.3 1463 321.7 1508.8 337.8C1554.7 354 1600.3 372 1646 388.2C1691.7 404.3 1737.3 418.7 1783 424C1828.7 429.3 1874.3 425.7 1897.2 423.8L1920 422L1920 280L1897.2 287.2C1874.3 294.3 1828.7 308.7 1783 308.7C1737.3 308.7 1691.7 294.3 1646 276.3C1600.3 258.3 1554.7 236.7 1508.8 225.8C1463 215 1417 215 1371.2 207.8C1325.3 200.7 1279.7 186.3 1234 184.5C1188.3 182.7 1142.7 193.3 1097 198.7C1051.3 204 1005.7 204 960 198.7C914.3 193.3 868.7 182.7 823 170.2C777.3 157.7 731.7 143.3 686 137.8C640.3 132.3 594.7 135.7 548.8 168C503 200.3 457 261.7 411.2 274.3C365.3 287 319.7 251 274 216.8C228.3 182.7 182.7 150.3 137 175.5C91.3 200.7 45.7 283.3 22.8 324.7L0 366Z" fill="#656565"></path><path d="M0 606L22.8 564.5C45.7 523 91.3 440 137 400.3C182.7 360.7 228.3 364.3 274 389.7C319.7 415 365.3 462 411.2 453C457 444 503 379 548.8 357.3C594.7 335.7 640.3 357.3 686 364.5C731.7 371.7 777.3 364.3 823 384.2C868.7 404 914.3 451 960 461.8C1005.7 472.7 1051.3 447.3 1097 422.2C1142.7 397 1188.3 372 1234 370.2C1279.7 368.3 1325.3 389.7 1371.2 418.3C1417 447 1463 483 1508.8 513.7C1554.7 544.3 1600.3 569.7 1646 562.5C1691.7 555.3 1737.3 515.7 1783 501.3C1828.7 487 1874.3 498 1897.2 503.5L1920 509L1920 420L1897.2 421.8C1874.3 423.7 1828.7 427.3 1783 422C1737.3 416.7 1691.7 402.3 1646 386.2C1600.3 370 1554.7 352 1508.8 335.8C1463 319.7 1417 305.3 1371.2 283.7C1325.3 262 1279.7 233 1234 224C1188.3 215 1142.7 226 1097 245.8C1051.3 265.7 1005.7 294.3 960 292.5C914.3 290.7 868.7 258.3 823 249.3C777.3 240.3 731.7 254.7 686 260C640.3 265.3 594.7 261.7 548.8 276C503 290.3 457 322.7 411.2 324.5C365.3 326.3 319.7 297.7 274 267.2C228.3 236.7 182.7 204.3 137 242.2C91.3 280 45.7 388 22.8 442L0 496Z" fill="#828282"></path><path d="M0 768L22.8 762.5C45.7 757 91.3 746 137 747.8C182.7 749.7 228.3 764.3 274 746.3C319.7 728.3 365.3 677.7 411.2 657.8C457 638 503 649 548.8 661.7C594.7 674.3 640.3 688.7 686 715.7C731.7 742.7 777.3 782.3 823 786C868.7 789.7 914.3 757.3 960 750.2C1005.7 743 1051.3 761 1097 770C1142.7 779 1188.3 779 1234 771.7C1279.7 764.3 1325.3 749.7 1371.2 747.8C1417 746 1463 757 1508.8 773.3C1554.7 789.7 1600.3 811.3 1646 805.8C1691.7 800.3 1737.3 767.7 1783 760.3C1828.7 753 1874.3 771 1897.2 780L1920 789L1920 507L1897.2 501.5C1874.3 496 1828.7 485 1783 499.3C1737.3 513.7 1691.7 553.3 1646 560.5C1600.3 567.7 1554.7 542.3 1508.8 511.7C1463 481 1417 445 1371.2 416.3C1325.3 387.7 1279.7 366.3 1234 368.2C1188.3 370 1142.7 395 1097 420.2C1051.3 445.3 1005.7 470.7 960 459.8C914.3 449 868.7 402 823 382.2C777.3 362.3 731.7 369.7 686 362.5C640.3 355.3 594.7 333.7 548.8 355.3C503 377 457 442 411.2 451C365.3 460 319.7 413 274 387.7C228.3 362.3 182.7 358.7 137 398.3C91.3 438 45.7 521 22.8 562.5L0 604Z" fill="#8f8f8f"></path><path d="M0 887L22.8 878C45.7 869 91.3 851 137 845.5C182.7 840 228.3 847 274 823.5C319.7 800 365.3 746 411.2 726.2C457 706.3 503 720.7 548.8 742.3C594.7 764 640.3 793 686 812.8C731.7 832.7 777.3 843.3 823 846.8C868.7 850.3 914.3 846.7 960 841.3C1005.7 836 1051.3 829 1097 839.8C1142.7 850.7 1188.3 879.3 1234 884.7C1279.7 890 1325.3 872 1371.2 870.2C1417 868.3 1463 882.7 1508.8 898.8C1554.7 915 1600.3 933 1646 918.7C1691.7 904.3 1737.3 857.7 1783 850.5C1828.7 843.3 1874.3 875.7 1897.2 891.8L1920 908L1920 787L1897.2 778C1874.3 769 1828.7 751 1783 758.3C1737.3 765.7 1691.7 798.3 1646 803.8C1600.3 809.3 1554.7 787.7 1508.8 771.3C1463 755 1417 744 1371.2 745.8C1325.3 747.7 1279.7 762.3 1234 769.7C1188.3 777 1142.7 777 1097 768C1051.3 759 1005.7 741 960 748.2C914.3 755.3 868.7 787.7 823 784C777.3 780.3 731.7 740.7 686 713.7C640.3 686.7 594.7 672.3 548.8 659.7C503 647 457 636 411.2 655.8C365.3 675.7 319.7 726.3 274 744.3C228.3 762.3 182.7 747.7 137 745.8C91.3 744 45.7 755 22.8 760.5L0 766Z" fill="#828282"></path><path d="M0 951L22.8 949.3C45.7 947.7 91.3 944.3 137 940.8C182.7 937.3 228.3 933.7 274 931.8C319.7 930 365.3 930 411.2 931.8C457 933.7 503 937.3 548.8 944.5C594.7 951.7 640.3 962.3 686 971.3C731.7 980.3 777.3 987.7 823 989.5C868.7 991.3 914.3 987.7 960 989.3C1005.7 991 1051.3 998 1097 998C1142.7 998 1188.3 991 1234 989.3C1279.7 987.7 1325.3 991.3 1371.2 993.2C1417 995 1463 995 1508.8 1004C1554.7 1013 1600.3 1031 1646 1018.3C1691.7 1005.7 1737.3 962.3 1783 949.7C1828.7 937 1874.3 955 1897.2 964L1920 973L1920 906L1897.2 889.8C1874.3 873.7 1828.7 841.3 1783 848.5C1737.3 855.7 1691.7 902.3 1646 916.7C1600.3 931 1554.7 913 1508.8 896.8C1463 880.7 1417 866.3 1371.2 868.2C1325.3 870 1279.7 888 1234 882.7C1188.3 877.3 1142.7 848.7 1097 837.8C1051.3 827 1005.7 834 960 839.3C914.3 844.7 868.7 848.3 823 844.8C777.3 841.3 731.7 830.7 686 810.8C640.3 791 594.7 762 548.8 740.3C503 718.7 457 704.3 411.2 724.2C365.3 744 319.7 798 274 821.5C228.3 845 182.7 838 137 843.5C91.3 849 45.7 867 22.8 876L0 885Z" fill="#656565"></path><path d="M0 1081L22.8 1081C45.7 1081 91.3 1081 137 1081C182.7 1081 228.3 1081 274 1081C319.7 1081 365.3 1081 411.2 1081C457 1081 503 1081 548.8 1081C594.7 1081 640.3 1081 686 1081C731.7 1081 777.3 1081 823 1081C868.7 1081 914.3 1081 960 1081C1005.7 1081 1051.3 1081 1097 1081C1142.7 1081 1188.3 1081 1234 1081C1279.7 1081 1325.3 1081 1371.2 1081C1417 1081 1463 1081 1508.8 1081C1554.7 1081 1600.3 1081 1646 1081C1691.7 1081 1737.3 1081 1783 1081C1828.7 1081 1874.3 1081 1897.2 1081L1920 1081L1920 971L1897.2 962C1874.3 953 1828.7 935 1783 947.7C1737.3 960.3 1691.7 1003.7 1646 1016.3C1600.3 1029 1554.7 1011 1508.8 1002C1463 993 1417 993 1371.2 991.2C1325.3 989.3 1279.7 985.7 1234 987.3C1188.3 989 1142.7 996 1097 996C1051.3 996 1005.7 989 960 987.3C914.3 985.7 868.7 989.3 823 987.5C777.3 985.7 731.7 978.3 686 969.3C640.3 960.3 594.7 949.7 548.8 942.5C503 935.3 457 931.7 411.2 929.8C365.3 928 319.7 928 274 929.8C228.3 931.7 182.7 935.3 137 938.8C91.3 942.3 45.7 945.7 22.8 947.3L0 949Z" fill="#4e4e4e"></path></svg>