<svg id="visual" viewBox="0 0 1920 1080" width="1920" height="1080" xmlns="http://www.w3.org/2000/svg" xmlns:xlink="http://www.w3.org/1999/xlink" version="1.1"><rect width="1920" height="1080" fill="#DDDDDD"></rect><g><g transform="translate(991 412)"><path d="M0 -106.3L83.1 -66.3L103.6 23.7L46.1 95.8L-46.1 95.8L-103.6 23.7L-83.1 -66.3Z" fill="none" stroke="#000000" stroke-width="12"></path></g><g transform="translate(315 905)"><path d="M0 -80L62.5 -49.9L78 17.8L34.7 72.1L-34.7 72.1L-78 17.8L-62.5 -49.9Z" fill="none" stroke="#000000" stroke-width="12"></path></g><g transform="translate(1022 155)"><path d="M0 -92L71.9 -57.4L89.7 20.5L39.9 82.9L-39.9 82.9L-89.7 20.5L-71.9 -57.4Z" stroke="#000000" fill="none" stroke-width="12"></path></g><g transform="translate(324 390)"><path d="M0 -90L70.4 -56.1L87.7 20L39 81.1L-39 81.1L-87.7 20L-70.4 -56.1Z" stroke="#000000" fill="none" stroke-width="12"></path></g><g transform="translate(1800 310)"><path d="M0 -83L64.9 -51.7L80.9 18.5L36 74.8L-36 74.8L-80.9 18.5L-64.9 -51.7Z" stroke="#000000" fill="none" stroke-width="12"></path></g><g transform="translate(761 770)"><path d="M0 -83L64.9 -51.7L80.9 18.5L36 74.8L-36 74.8L-80.9 18.5L-64.9 -51.7Z" stroke="#000000" fill="none" stroke-width="12"></path></g></g></svg>